<svg width="25" height="24" viewBox="0 0 25 24" fill="none" xmlns="http://www.w3.org/2000/svg">
<g id="Frame">
<g id="Group">
<path id="Vector" d="M14.984 11.8608C28.4096 11.1096 19.6832 -2.22238 13.6232 9.78001C19.6856 -2.22238 3.77601 -1.33199 11.1392 9.91921C3.77601 -1.33199 -3.40719 12.8904 10.0184 12.1392C-3.40719 12.8904 5.31921 26.2224 11.3792 14.22C5.31681 26.2224 21.2264 25.332 13.8632 14.0808C21.2264 25.332 28.4096 11.1096 14.984 11.8608ZM14.1128 13.6128C13.2224 14.5032 11.78 14.5032 10.8896 13.6128C9.99921 12.7224 9.99921 11.28 10.8896 10.3896C11.78 9.49921 13.2224 9.49921 14.1128 10.3896C15.0032 11.28 15.0032 12.7224 14.1128 13.6128Z" fill="#C9B4FF"/>
</g>
</g>
</svg>
