<svg width="25" height="24" viewBox="0 0 25 24" fill="none" xmlns="http://www.w3.org/2000/svg">
<g id="navigation-pointer-01">
<path id="Icon" d="M4.08011 10.7445C3.48476 10.513 3.18709 10.3972 3.10018 10.2304C3.02485 10.0858 3.02475 9.91354 3.09991 9.76886C3.18662 9.60195 3.48416 9.48584 4.07923 9.25361L20.967 2.66327C21.5042 2.45364 21.7727 2.34883 21.9444 2.40616C22.0934 2.45596 22.2104 2.57292 22.2602 2.72197C22.3175 2.8936 22.2127 3.16219 22.0031 3.69937L15.4127 20.5871C15.1805 21.1822 15.0644 21.4797 14.8975 21.5664C14.7528 21.6416 14.5806 21.6415 14.436 21.5662C14.2692 21.4793 14.1534 21.1816 13.9219 20.5862L11.2938 13.8282C11.2468 13.7074 11.2233 13.647 11.187 13.5961C11.1548 13.551 11.1154 13.5115 11.0703 13.4794C11.0194 13.4431 10.959 13.4196 10.8381 13.3726L4.08011 10.7445Z" stroke="#667085" stroke-width="2" stroke-linecap="round" stroke-linejoin="round"/>
</g>
</svg>
